<mxfile host="app.diagrams.net" modified="2021-02-24T17:31:14.562Z" agent="5.0 (Windows NT 10.0; Win64; x64) AppleWebKit/537.36 (KHTML, like Gecko) Chrome/88.0.4324.182 Safari/537.36" etag="GrfoclJ2bhmwEDoij0dY" version="14.4.2" type="github">
  <diagram id="carBKXJzMiiaroPGOYq8" name="Page-1">
    <mxGraphModel dx="2297" dy="1850" grid="1" gridSize="9" guides="1" tooltips="1" connect="1" arrows="1" fold="1" page="1" pageScale="1" pageWidth="850" pageHeight="1100" math="0" shadow="0">
      <root>
        <mxCell id="0" />
        <mxCell id="1" parent="0" />
        <mxCell id="CniMn9r-MN8BiPeW_fsj-91" value="" style="rounded=0;whiteSpace=wrap;html=1;" vertex="1" parent="1">
          <mxGeometry x="-120" y="-80" width="1090" height="1340" as="geometry" />
        </mxCell>
        <mxCell id="CniMn9r-MN8BiPeW_fsj-89" value="" style="rounded=0;whiteSpace=wrap;html=1;" vertex="1" parent="1">
          <mxGeometry x="-5" y="-10" width="860" height="430" as="geometry" />
        </mxCell>
        <mxCell id="CniMn9r-MN8BiPeW_fsj-83" value="" style="rounded=0;whiteSpace=wrap;html=1;" vertex="1" parent="1">
          <mxGeometry x="-10" y="840" width="870" height="300" as="geometry" />
        </mxCell>
        <mxCell id="CniMn9r-MN8BiPeW_fsj-81" value="" style="rounded=0;whiteSpace=wrap;html=1;" vertex="1" parent="1">
          <mxGeometry x="-10" y="450" width="870" height="370" as="geometry" />
        </mxCell>
        <mxCell id="CniMn9r-MN8BiPeW_fsj-2" value="Search Restaurant" style="ellipse;whiteSpace=wrap;html=1;" vertex="1" parent="1">
          <mxGeometry x="425" y="10" width="130" height="60" as="geometry" />
        </mxCell>
        <mxCell id="CniMn9r-MN8BiPeW_fsj-6" value="Restaurant&lt;br&gt;" style="shape=umlActor;verticalLabelPosition=bottom;verticalAlign=top;html=1;outlineConnect=0;" vertex="1" parent="1">
          <mxGeometry x="-320" y="460" width="120" height="140" as="geometry" />
        </mxCell>
        <mxCell id="CniMn9r-MN8BiPeW_fsj-93" value="" style="edgeStyle=none;rounded=0;orthogonalLoop=1;jettySize=auto;html=1;entryX=1;entryY=0.5;entryDx=0;entryDy=0;endArrow=none;endFill=0;" edge="1" parent="1" target="CniMn9r-MN8BiPeW_fsj-17">
          <mxGeometry relative="1" as="geometry">
            <mxPoint x="1080" y="279" as="sourcePoint" />
          </mxGeometry>
        </mxCell>
        <mxCell id="CniMn9r-MN8BiPeW_fsj-7" value="Customer" style="shape=umlActor;verticalLabelPosition=bottom;verticalAlign=top;html=1;outlineConnect=0;" vertex="1" parent="1">
          <mxGeometry x="1070" y="216" width="91" height="114" as="geometry" />
        </mxCell>
        <mxCell id="CniMn9r-MN8BiPeW_fsj-9" value="Admin&lt;br&gt;" style="shape=umlActor;verticalLabelPosition=bottom;verticalAlign=top;html=1;outlineConnect=0;" vertex="1" parent="1">
          <mxGeometry x="1040" y="819" width="85" height="90" as="geometry" />
        </mxCell>
        <mxCell id="CniMn9r-MN8BiPeW_fsj-12" value="Edit Restaurant" style="ellipse;whiteSpace=wrap;html=1;" vertex="1" parent="1">
          <mxGeometry x="100" y="100" width="130" height="60" as="geometry" />
        </mxCell>
        <mxCell id="CniMn9r-MN8BiPeW_fsj-13" value="Edit Menu" style="ellipse;whiteSpace=wrap;html=1;" vertex="1" parent="1">
          <mxGeometry x="150" y="510" width="130" height="60" as="geometry" />
        </mxCell>
        <mxCell id="CniMn9r-MN8BiPeW_fsj-32" style="rounded=0;orthogonalLoop=1;jettySize=auto;html=1;exitX=0.5;exitY=0;exitDx=0;exitDy=0;entryX=0.5;entryY=1;entryDx=0;entryDy=0;" edge="1" parent="1" source="CniMn9r-MN8BiPeW_fsj-15" target="CniMn9r-MN8BiPeW_fsj-13">
          <mxGeometry relative="1" as="geometry" />
        </mxCell>
        <mxCell id="CniMn9r-MN8BiPeW_fsj-15" value="Edit Price" style="ellipse;whiteSpace=wrap;html=1;" vertex="1" parent="1">
          <mxGeometry x="20" y="660" width="130" height="60" as="geometry" />
        </mxCell>
        <mxCell id="CniMn9r-MN8BiPeW_fsj-16" value="Edit Items" style="ellipse;whiteSpace=wrap;html=1;" vertex="1" parent="1">
          <mxGeometry x="270" y="650" width="130" height="60" as="geometry" />
        </mxCell>
        <mxCell id="CniMn9r-MN8BiPeW_fsj-17" value="View Restaurant" style="ellipse;whiteSpace=wrap;html=1;" vertex="1" parent="1">
          <mxGeometry x="425" y="100" width="130" height="60" as="geometry" />
        </mxCell>
        <mxCell id="CniMn9r-MN8BiPeW_fsj-18" value="View Items" style="ellipse;whiteSpace=wrap;html=1;" vertex="1" parent="1">
          <mxGeometry x="450" y="740" width="130" height="60" as="geometry" />
        </mxCell>
        <mxCell id="CniMn9r-MN8BiPeW_fsj-19" value="View Total Price" style="ellipse;whiteSpace=wrap;html=1;" vertex="1" parent="1">
          <mxGeometry x="620" y="640" width="130" height="60" as="geometry" />
        </mxCell>
        <mxCell id="CniMn9r-MN8BiPeW_fsj-26" value="" style="endArrow=classic;html=1;dashed=1;exitX=0.954;exitY=0.267;exitDx=0;exitDy=0;exitPerimeter=0;entryX=0;entryY=0.5;entryDx=0;entryDy=0;" edge="1" parent="1" source="CniMn9r-MN8BiPeW_fsj-15" target="CniMn9r-MN8BiPeW_fsj-37">
          <mxGeometry relative="1" as="geometry">
            <mxPoint x="260" y="410" as="sourcePoint" />
            <mxPoint x="420" y="410" as="targetPoint" />
          </mxGeometry>
        </mxCell>
        <mxCell id="CniMn9r-MN8BiPeW_fsj-27" value="&amp;lt;&amp;lt;includes&amp;gt;&amp;gt;" style="edgeLabel;resizable=0;html=1;align=center;verticalAlign=middle;" connectable="0" vertex="1" parent="CniMn9r-MN8BiPeW_fsj-26">
          <mxGeometry relative="1" as="geometry" />
        </mxCell>
        <mxCell id="CniMn9r-MN8BiPeW_fsj-29" value="" style="endArrow=classic;html=1;dashed=1;exitX=1;exitY=0.5;exitDx=0;exitDy=0;entryX=0;entryY=0.5;entryDx=0;entryDy=0;" edge="1" parent="1" source="CniMn9r-MN8BiPeW_fsj-16" target="CniMn9r-MN8BiPeW_fsj-18">
          <mxGeometry relative="1" as="geometry">
            <mxPoint x="390" y="590" as="sourcePoint" />
            <mxPoint x="430" y="560" as="targetPoint" />
          </mxGeometry>
        </mxCell>
        <mxCell id="CniMn9r-MN8BiPeW_fsj-30" value="&amp;lt;&amp;lt;includes&amp;gt;&amp;gt;" style="edgeLabel;resizable=0;html=1;align=center;verticalAlign=middle;" connectable="0" vertex="1" parent="CniMn9r-MN8BiPeW_fsj-29">
          <mxGeometry relative="1" as="geometry" />
        </mxCell>
        <mxCell id="CniMn9r-MN8BiPeW_fsj-33" style="rounded=0;orthogonalLoop=1;jettySize=auto;html=1;exitX=0.5;exitY=0;exitDx=0;exitDy=0;entryX=0.5;entryY=1;entryDx=0;entryDy=0;" edge="1" parent="1" source="CniMn9r-MN8BiPeW_fsj-16" target="CniMn9r-MN8BiPeW_fsj-13">
          <mxGeometry relative="1" as="geometry">
            <mxPoint x="301.97" y="570" as="sourcePoint" />
            <mxPoint x="370" y="521.98" as="targetPoint" />
          </mxGeometry>
        </mxCell>
        <mxCell id="CniMn9r-MN8BiPeW_fsj-35" value="" style="endArrow=classic;html=1;dashed=1;exitX=0.5;exitY=0;exitDx=0;exitDy=0;entryX=0.5;entryY=1;entryDx=0;entryDy=0;" edge="1" parent="1" source="CniMn9r-MN8BiPeW_fsj-19" target="CniMn9r-MN8BiPeW_fsj-37">
          <mxGeometry relative="1" as="geometry">
            <mxPoint x="174.01999999999998" y="596.02" as="sourcePoint" />
            <mxPoint x="495" y="430" as="targetPoint" />
          </mxGeometry>
        </mxCell>
        <mxCell id="CniMn9r-MN8BiPeW_fsj-36" value="&amp;lt;&amp;lt;extends&amp;gt;&amp;gt;" style="edgeLabel;resizable=0;html=1;align=center;verticalAlign=middle;" connectable="0" vertex="1" parent="CniMn9r-MN8BiPeW_fsj-35">
          <mxGeometry relative="1" as="geometry" />
        </mxCell>
        <mxCell id="CniMn9r-MN8BiPeW_fsj-37" value="View Price&lt;br&gt;&lt;br&gt;Extension: &lt;br&gt;View Total Price" style="shape=lineEllipse;perimeter=ellipsePerimeter;whiteSpace=wrap;html=1;backgroundOutline=1;" vertex="1" parent="1">
          <mxGeometry x="610" y="470" width="150" height="80" as="geometry" />
        </mxCell>
        <mxCell id="CniMn9r-MN8BiPeW_fsj-39" value="" style="endArrow=classic;html=1;dashed=1;exitX=1;exitY=0.5;exitDx=0;exitDy=0;entryX=0;entryY=0.5;entryDx=0;entryDy=0;" edge="1" parent="1" source="CniMn9r-MN8BiPeW_fsj-12" target="CniMn9r-MN8BiPeW_fsj-17">
          <mxGeometry relative="1" as="geometry">
            <mxPoint x="260" y="338.01" as="sourcePoint" />
            <mxPoint x="540.98" y="121.99000000000001" as="targetPoint" />
          </mxGeometry>
        </mxCell>
        <mxCell id="CniMn9r-MN8BiPeW_fsj-40" value="&amp;lt;&amp;lt;includes&amp;gt;&amp;gt;" style="edgeLabel;resizable=0;html=1;align=center;verticalAlign=middle;" connectable="0" vertex="1" parent="CniMn9r-MN8BiPeW_fsj-39">
          <mxGeometry relative="1" as="geometry" />
        </mxCell>
        <mxCell id="CniMn9r-MN8BiPeW_fsj-41" value="Edit Timings" style="ellipse;whiteSpace=wrap;html=1;" vertex="1" parent="1">
          <mxGeometry x="20" y="220" width="130" height="60" as="geometry" />
        </mxCell>
        <mxCell id="CniMn9r-MN8BiPeW_fsj-45" value="" style="edgeStyle=none;rounded=0;orthogonalLoop=1;jettySize=auto;html=1;entryX=0.5;entryY=1;entryDx=0;entryDy=0;exitX=0.5;exitY=0;exitDx=0;exitDy=0;" edge="1" parent="1" source="CniMn9r-MN8BiPeW_fsj-42" target="CniMn9r-MN8BiPeW_fsj-12">
          <mxGeometry relative="1" as="geometry">
            <mxPoint x="350" y="279" as="sourcePoint" />
            <mxPoint x="235" y="120" as="targetPoint" />
          </mxGeometry>
        </mxCell>
        <mxCell id="CniMn9r-MN8BiPeW_fsj-42" value="Edit Location" style="ellipse;whiteSpace=wrap;html=1;" vertex="1" parent="1">
          <mxGeometry x="220" y="160" width="130" height="60" as="geometry" />
        </mxCell>
        <mxCell id="CniMn9r-MN8BiPeW_fsj-44" value="" style="endArrow=classic;html=1;exitX=0.5;exitY=0;exitDx=0;exitDy=0;rounded=0;entryX=0.5;entryY=1;entryDx=0;entryDy=0;" edge="1" parent="1" source="CniMn9r-MN8BiPeW_fsj-41" target="CniMn9r-MN8BiPeW_fsj-12">
          <mxGeometry width="50" height="50" relative="1" as="geometry">
            <mxPoint x="100" y="320" as="sourcePoint" />
            <mxPoint x="140" y="280" as="targetPoint" />
          </mxGeometry>
        </mxCell>
        <mxCell id="CniMn9r-MN8BiPeW_fsj-46" value="View Location" style="ellipse;whiteSpace=wrap;html=1;" vertex="1" parent="1">
          <mxGeometry x="530" y="230" width="130" height="60" as="geometry" />
        </mxCell>
        <mxCell id="CniMn9r-MN8BiPeW_fsj-48" value="" style="endArrow=classic;html=1;exitX=0.5;exitY=0;exitDx=0;exitDy=0;entryX=0.5;entryY=1;entryDx=0;entryDy=0;" edge="1" parent="1" target="CniMn9r-MN8BiPeW_fsj-17">
          <mxGeometry width="50" height="50" relative="1" as="geometry">
            <mxPoint x="385" y="230" as="sourcePoint" />
            <mxPoint x="370" y="-40" as="targetPoint" />
          </mxGeometry>
        </mxCell>
        <mxCell id="CniMn9r-MN8BiPeW_fsj-49" value="" style="endArrow=classic;html=1;entryX=0.5;entryY=1;entryDx=0;entryDy=0;exitX=0.5;exitY=0;exitDx=0;exitDy=0;" edge="1" parent="1" source="CniMn9r-MN8BiPeW_fsj-46" target="CniMn9r-MN8BiPeW_fsj-17">
          <mxGeometry width="50" height="50" relative="1" as="geometry">
            <mxPoint x="565" y="220" as="sourcePoint" />
            <mxPoint x="615" y="170" as="targetPoint" />
          </mxGeometry>
        </mxCell>
        <mxCell id="CniMn9r-MN8BiPeW_fsj-52" value="" style="edgeStyle=none;rounded=0;orthogonalLoop=1;jettySize=auto;html=1;entryX=0.5;entryY=1;entryDx=0;entryDy=0;" edge="1" parent="1" source="CniMn9r-MN8BiPeW_fsj-50" target="CniMn9r-MN8BiPeW_fsj-12">
          <mxGeometry relative="1" as="geometry" />
        </mxCell>
        <mxCell id="CniMn9r-MN8BiPeW_fsj-50" value="Declare Non Serviceability" style="ellipse;whiteSpace=wrap;html=1;" vertex="1" parent="1">
          <mxGeometry x="110" y="305" width="130" height="60" as="geometry" />
        </mxCell>
        <mxCell id="CniMn9r-MN8BiPeW_fsj-53" value="" style="endArrow=classic;html=1;dashed=1;entryX=0;entryY=0.5;entryDx=0;entryDy=0;exitX=1;exitY=0.5;exitDx=0;exitDy=0;" edge="1" parent="1" source="CniMn9r-MN8BiPeW_fsj-41">
          <mxGeometry relative="1" as="geometry">
            <mxPoint x="85" y="310" as="sourcePoint" />
            <mxPoint x="320" y="260" as="targetPoint" />
          </mxGeometry>
        </mxCell>
        <mxCell id="CniMn9r-MN8BiPeW_fsj-54" value="&amp;lt;&amp;lt;includes&amp;gt;&amp;gt;" style="edgeLabel;resizable=0;html=1;align=center;verticalAlign=middle;" connectable="0" vertex="1" parent="CniMn9r-MN8BiPeW_fsj-53">
          <mxGeometry relative="1" as="geometry" />
        </mxCell>
        <mxCell id="CniMn9r-MN8BiPeW_fsj-55" value="" style="endArrow=classic;html=1;dashed=1;entryX=0;entryY=0.5;entryDx=0;entryDy=0;" edge="1" parent="1" source="CniMn9r-MN8BiPeW_fsj-57" target="CniMn9r-MN8BiPeW_fsj-46">
          <mxGeometry relative="1" as="geometry">
            <mxPoint x="330" y="340" as="sourcePoint" />
            <mxPoint x="565" y="290" as="targetPoint" />
          </mxGeometry>
        </mxCell>
        <mxCell id="CniMn9r-MN8BiPeW_fsj-57" value="View Timing&lt;br&gt;&lt;br&gt;Extension: &lt;br&gt;Current Open Status" style="shape=lineEllipse;perimeter=ellipsePerimeter;whiteSpace=wrap;html=1;backgroundOutline=1;" vertex="1" parent="1">
          <mxGeometry x="320" y="220" width="150" height="80" as="geometry" />
        </mxCell>
        <mxCell id="CniMn9r-MN8BiPeW_fsj-58" value="" style="endArrow=classic;html=1;dashed=1;entryX=0;entryY=1;entryDx=0;entryDy=0;exitX=1;exitY=0.5;exitDx=0;exitDy=0;" edge="1" parent="1" source="CniMn9r-MN8BiPeW_fsj-42" target="CniMn9r-MN8BiPeW_fsj-46">
          <mxGeometry relative="1" as="geometry">
            <mxPoint x="330" y="340" as="sourcePoint" />
            <mxPoint x="530" y="260" as="targetPoint" />
          </mxGeometry>
        </mxCell>
        <mxCell id="CniMn9r-MN8BiPeW_fsj-59" value="&amp;lt;&amp;lt;includes&amp;gt;&amp;gt;" style="edgeLabel;resizable=0;html=1;align=center;verticalAlign=middle;" connectable="0" vertex="1" parent="CniMn9r-MN8BiPeW_fsj-58">
          <mxGeometry relative="1" as="geometry" />
        </mxCell>
        <mxCell id="CniMn9r-MN8BiPeW_fsj-60" value="Current Open Status" style="ellipse;whiteSpace=wrap;html=1;" vertex="1" parent="1">
          <mxGeometry x="340" y="350" width="130" height="60" as="geometry" />
        </mxCell>
        <mxCell id="CniMn9r-MN8BiPeW_fsj-61" value="" style="endArrow=classic;html=1;dashed=1;entryX=0.5;entryY=1;entryDx=0;entryDy=0;exitX=0.5;exitY=0;exitDx=0;exitDy=0;" edge="1" parent="1" source="CniMn9r-MN8BiPeW_fsj-60" target="CniMn9r-MN8BiPeW_fsj-57">
          <mxGeometry relative="1" as="geometry">
            <mxPoint x="340" y="350" as="sourcePoint" />
            <mxPoint x="559.0380592228744" y="291.2132034355965" as="targetPoint" />
          </mxGeometry>
        </mxCell>
        <mxCell id="CniMn9r-MN8BiPeW_fsj-62" value="&amp;lt;&amp;lt;extends&amp;gt;&amp;gt;" style="edgeLabel;resizable=0;html=1;align=center;verticalAlign=middle;" connectable="0" vertex="1" parent="CniMn9r-MN8BiPeW_fsj-61">
          <mxGeometry relative="1" as="geometry" />
        </mxCell>
        <mxCell id="CniMn9r-MN8BiPeW_fsj-64" value="Register" style="ellipse;whiteSpace=wrap;html=1;" vertex="1" parent="1">
          <mxGeometry x="70" y="870" width="130" height="60" as="geometry" />
        </mxCell>
        <mxCell id="CniMn9r-MN8BiPeW_fsj-65" value="Request Verify Profile" style="ellipse;whiteSpace=wrap;html=1;" vertex="1" parent="1">
          <mxGeometry x="70" y="950" width="130" height="60" as="geometry" />
        </mxCell>
        <mxCell id="CniMn9r-MN8BiPeW_fsj-66" value="Self-Verify (OTP/Email)" style="ellipse;whiteSpace=wrap;html=1;" vertex="1" parent="1">
          <mxGeometry x="530" y="920" width="130" height="60" as="geometry" />
        </mxCell>
        <mxCell id="CniMn9r-MN8BiPeW_fsj-67" value="Authorize Profile" style="ellipse;whiteSpace=wrap;html=1;" vertex="1" parent="1">
          <mxGeometry x="530" y="1010" width="130" height="60" as="geometry" />
        </mxCell>
        <mxCell id="CniMn9r-MN8BiPeW_fsj-68" value="" style="endArrow=classic;html=1;dashed=1;exitX=0;exitY=0.5;exitDx=0;exitDy=0;entryX=1;entryY=0.5;entryDx=0;entryDy=0;" edge="1" parent="1" source="CniMn9r-MN8BiPeW_fsj-67" target="CniMn9r-MN8BiPeW_fsj-70">
          <mxGeometry relative="1" as="geometry">
            <mxPoint x="300" y="930" as="sourcePoint" />
            <mxPoint x="190" y="990" as="targetPoint" />
          </mxGeometry>
        </mxCell>
        <mxCell id="CniMn9r-MN8BiPeW_fsj-69" value="&amp;lt;&amp;lt;includes&amp;gt;&amp;gt;" style="edgeLabel;resizable=0;html=1;align=center;verticalAlign=middle;" connectable="0" vertex="1" parent="CniMn9r-MN8BiPeW_fsj-68">
          <mxGeometry relative="1" as="geometry" />
        </mxCell>
        <mxCell id="CniMn9r-MN8BiPeW_fsj-70" value="View Profile" style="ellipse;whiteSpace=wrap;html=1;" vertex="1" parent="1">
          <mxGeometry x="70" y="1040" width="130" height="60" as="geometry" />
        </mxCell>
        <mxCell id="CniMn9r-MN8BiPeW_fsj-71" style="edgeStyle=none;rounded=0;orthogonalLoop=1;jettySize=auto;html=1;entryX=1;entryY=0.5;entryDx=0;entryDy=0;" edge="1" parent="1" source="CniMn9r-MN8BiPeW_fsj-70" target="CniMn9r-MN8BiPeW_fsj-70">
          <mxGeometry relative="1" as="geometry" />
        </mxCell>
        <mxCell id="CniMn9r-MN8BiPeW_fsj-72" value="Select Items" style="ellipse;whiteSpace=wrap;html=1;" vertex="1" parent="1">
          <mxGeometry x="670" y="740" width="130" height="60" as="geometry" />
        </mxCell>
        <mxCell id="CniMn9r-MN8BiPeW_fsj-73" value="" style="endArrow=classic;html=1;dashed=1;exitX=0;exitY=0.5;exitDx=0;exitDy=0;entryX=1;entryY=0.5;entryDx=0;entryDy=0;" edge="1" parent="1" source="CniMn9r-MN8BiPeW_fsj-72" target="CniMn9r-MN8BiPeW_fsj-18">
          <mxGeometry relative="1" as="geometry">
            <mxPoint x="370" y="780" as="sourcePoint" />
            <mxPoint x="510" y="890" as="targetPoint" />
          </mxGeometry>
        </mxCell>
        <mxCell id="CniMn9r-MN8BiPeW_fsj-74" value="&amp;lt;&amp;lt;includes&amp;gt;&amp;gt;" style="edgeLabel;resizable=0;html=1;align=center;verticalAlign=middle;" connectable="0" vertex="1" parent="CniMn9r-MN8BiPeW_fsj-73">
          <mxGeometry relative="1" as="geometry" />
        </mxCell>
        <mxCell id="CniMn9r-MN8BiPeW_fsj-85" value="" style="endArrow=classic;html=1;dashed=1;entryX=0;entryY=0.5;entryDx=0;entryDy=0;exitX=0.985;exitY=0.694;exitDx=0;exitDy=0;exitPerimeter=0;" edge="1" parent="1" source="CniMn9r-MN8BiPeW_fsj-50" target="CniMn9r-MN8BiPeW_fsj-60">
          <mxGeometry relative="1" as="geometry">
            <mxPoint x="159.99999999999363" y="380" as="sourcePoint" />
            <mxPoint x="360" y="370" as="targetPoint" />
          </mxGeometry>
        </mxCell>
        <mxCell id="CniMn9r-MN8BiPeW_fsj-86" value="&amp;lt;&amp;lt;includes&amp;gt;&amp;gt;" style="edgeLabel;resizable=0;html=1;align=center;verticalAlign=middle;" connectable="0" vertex="1" parent="CniMn9r-MN8BiPeW_fsj-85">
          <mxGeometry relative="1" as="geometry" />
        </mxCell>
        <mxCell id="CniMn9r-MN8BiPeW_fsj-96" value="" style="edgeStyle=none;rounded=0;orthogonalLoop=1;jettySize=auto;html=1;entryX=1;entryY=0.5;entryDx=0;entryDy=0;endArrow=none;endFill=0;" edge="1" parent="1" target="CniMn9r-MN8BiPeW_fsj-46">
          <mxGeometry relative="1" as="geometry">
            <mxPoint x="1089" y="279" as="sourcePoint" />
            <mxPoint x="564" y="139" as="targetPoint" />
          </mxGeometry>
        </mxCell>
        <mxCell id="CniMn9r-MN8BiPeW_fsj-97" value="" style="edgeStyle=none;rounded=0;orthogonalLoop=1;jettySize=auto;html=1;entryX=0.959;entryY=0.722;entryDx=0;entryDy=0;endArrow=none;endFill=0;entryPerimeter=0;" edge="1" parent="1" target="CniMn9r-MN8BiPeW_fsj-2">
          <mxGeometry relative="1" as="geometry">
            <mxPoint x="1088" y="279.39161462979473" as="sourcePoint" />
            <mxPoint x="573" y="148" as="targetPoint" />
          </mxGeometry>
        </mxCell>
      </root>
    </mxGraphModel>
  </diagram>
</mxfile>
